Coordinates
version=1
nRows=13
nColumns=40
inDegrees=yes

Units are S.I. units (second, meters, Newtons, ...)
Angles are in degrees.

endheader
time	pelvis_tilt	pelvis_list	pelvis_rotation	pelvis_tx	pelvis_ty	pelvis_tz	hip_flexion_r	hip_adduction_r	hip_rotation_r	knee_angle_r	knee_angle_r_beta	ankle_angle_r	subtalar_angle_r	mtp_angle_r	hip_flexion_l	hip_adduction_l	hip_rotation_l	knee_angle_l	knee_angle_l_beta	ankle_angle_l	subtalar_angle_l	mtp_angle_l	lumbar_extension	lumbar_bending	lumbar_rotation	arm_flex_r	arm_add_r	arm_rot_r	elbow_flex_r	pro_sup_r	wrist_flex_r	wrist_dev_r	arm_flex_l	arm_add_l	arm_rot_l	elbow_flex_l	pro_sup_l	wrist_flex_l	wrist_dev_l
     22.54242857	     -5.97903582	     -4.02275615	      1.79030646	      0.93395487	      0.91067064	      0.42855272	     15.99208635	     -5.70054726	     -5.10902646	     57.98794174	     57.98794174	      3.54835067	    -15.07249720	     -6.78487501	     19.68007095	     -0.89547126	      0.61242097	     33.95517570	     33.95517570	     22.54556353	    -18.28865255	     11.61606642	    -10.63101334	      7.95300283	      3.07861358	      8.76394435	    -15.35594027	    -24.06207920	     19.63611662	     48.00171555	      0.00000000	      0.00000000	     16.02202132	    -19.41541881	     -5.94243946	     59.05792163	     47.22508285	      0.00000000	      0.00000000
     22.56235714	     -5.94018396	     -3.84358621	      1.31778111	      0.93266975	      0.91069058	      0.42749628	     18.40698349	     -5.76710729	     -4.43140146	     60.93412267	     60.93412267	      4.99795730	    -15.33079995	      0.85734091	     19.08916555	     -0.75334776	      0.14183583	     33.68644558	     33.68644558	     22.72579606	    -18.26950604	     11.34239020	    -10.93519867	      8.08218713	      2.89782540	      5.54261857	    -14.82504429	    -24.46438737	     19.45121251	     48.01383106	      0.00000000	      0.00000000	     17.87546255	    -19.99332794	     -5.07631338	     59.56724665	     47.19329600	      0.00000000	      0.00000000
     22.58228571	     -5.94616851	     -3.78377685	      0.75423284	      0.93137638	      0.91122036	      0.42702581	     20.54977304	     -5.65281679	     -4.03610622	     62.58179068	     62.58179068	      4.64125967	    -16.78470742	      2.19290833	     18.48800153	     -0.78385865	     -0.35549890	     33.30392662	     33.30392662	     22.85086470	    -18.24889242	     11.30147061	    -11.19683814	      8.32024281	      2.67145272	      2.83255618	    -14.29051458	    -24.50657009	     18.51792028	     48.03086777	      0.00000000	      0.00000000	     19.42956583	    -20.32069374	     -5.26578046	     60.81629367	     47.24176799	      0.00000000	      0.00000000
     22.60221429	     -5.99167265	     -3.70191584	      0.07215263	      0.93003200	      0.91222988	      0.42715853	     22.67102898	     -5.57746721	     -3.87413436	     63.50061092	     63.50061092	      4.99039376	    -17.70424815	      3.92383041	     17.80314575	     -0.84416013	     -0.97384609	     32.68137326	     32.68137326	     22.82643539	    -18.22672967	     11.29564096	    -11.44173306	      8.46823704	      2.49099386	      0.28328548	    -13.66145118	    -24.51828667	     17.94085580	     48.02967765	      0.00000000	      0.00000000	     20.94705569	    -20.75277416	     -5.33829629	     62.17369003	     47.28271359	      0.00000000	      0.00000000
     22.62214286	     -6.05725796	     -3.70377163	     -0.72721123	      0.92873304	      0.91371233	      0.42794606	     24.68053217	     -5.36959332	     -3.90384280	     63.57039645	     63.57039645	      6.00120218	    -18.21677137	      6.16790129	     17.04283960	     -1.04324533	     -1.66837721	     31.89320435	     31.89320435	     22.68654563	    -18.20048058	     11.24498574	    -11.72720200	      8.66034676	      2.50863887	     -2.23548603	    -12.98634424	    -24.47534059	     17.83914584	     48.00046997	      0.00000000	      0.00000000	     22.43729114	    -21.17297598	     -5.24502335	     63.90519644	     47.31900822	      0.00000000	      0.00000000
     22.64207143	     -6.27172494	     -3.79151748	     -1.59521857	      0.92737704	      0.91536648	      0.42927539	     26.57875150	     -5.10098301	     -4.22711435	     62.57186451	     62.57186451	      6.73346254	    -18.48068737	      6.24729138	     16.42151152	     -1.37586401	     -2.39976974	     31.07853605	     31.07853605	     22.58825231	    -18.07580193	     11.41944416	    -11.73766466	      8.96920172	      1.82536167	     -3.80234309	    -12.32363902	    -24.48465468	     17.39553992	     48.00083593	      0.00000000	      0.00000000	     23.67405423	    -22.14666801	     -5.57947949	     64.50861267	     47.36154300	      0.00000000	      0.00000000
     22.66200000	     -6.44935187	     -3.82265965	     -2.66146051	      0.92614476	      0.91743364	      0.43129539	     28.27993422	     -4.60474480	     -4.30903248	     60.74451466	     60.74451466	      8.11207859	    -18.61246015	      7.85505075	     15.50583474	     -1.69063888	     -3.35403965	     29.81443543	     29.81443543	     22.05446081	    -18.07823937	     11.07455330	    -11.96552436	      9.10660542	      2.08972329	     -6.35191997	    -11.62041439	    -24.19864014	     18.90443857	     47.86289716	      0.00000000	      0.00000000	     24.60981229	    -22.67529883	     -5.20556664	     67.48470189	     47.40535032	      0.00000000	      0.00000000
     22.68192857	     -6.69674474	     -3.98796714	     -3.74883357	      0.92500685	      0.91945455	      0.43385752	     29.63891991	     -3.89658714	     -4.52197017	     57.83017156	     57.83017156	      9.08580520	    -18.44639570	      7.56988741	     14.68456510	     -2.16160604	     -4.22629923	     28.66419555	     28.66419555	     21.87497877	    -17.98842259	     11.32857525	    -11.95514207	      9.36849028	      1.96518057	     -7.67628785	    -11.04333411	    -24.10690170	     18.59194274	     47.84938075	      0.00000000	      0.00000000	     26.00971629	    -23.27164333	     -5.54911205	     68.57304440	     47.45775312	      0.00000000	      0.00000000
     22.70185714	     -7.17408471	     -4.02634661	     -4.90872075	      0.92363556	      0.92084063	      0.43691337	     31.01159271	     -3.16903797	     -4.59941144	     54.19228042	     54.19228042	     10.08564157	    -17.69247713	      7.32537686	     14.27235914	     -2.56192553	     -5.23069665	     27.81435555	     27.81435555	     21.66239524	    -17.89565178	     11.54558285	    -11.67259378	      9.43239253	      1.71698702	     -8.64988338	    -10.50445629	    -24.08013151	     18.40524097	     47.84056522	      0.00000000	      0.00000000	     27.38938091	    -24.13453836	     -5.91142617	     69.42387018	     47.50556520	      0.00000000	      0.00000000
     22.72178571	     -7.17029131	     -4.29917524	     -6.09705082	      0.92317501	      0.92303904	      0.44017038	     30.82124244	     -2.29244461	     -5.02944931	     48.58126844	     48.58126844	      7.46972659	    -17.62618011	     -3.02594665	     12.79392316	     -3.09222646	     -6.22913833	     26.09796265	     26.09796265	     21.04831190	    -17.87834896	     10.69637902	    -12.15030113	      9.79329792	      2.06572051	    -10.73051385	    -10.06571541	    -22.48545219	     21.11752506	     47.49754184	      0.00000000	      0.00000000	     27.89802900	    -24.48854449	     -6.54484452	     73.33214273	     47.65850517	      0.00000000	      0.00000000
     22.74171429	     -7.47785859	     -4.47934756	     -7.23329840	      0.92248732	      0.92415988	      0.44386547	     31.04127493	     -1.26306670	     -5.04164818	     43.30010164	     43.30010164	      7.94960100	    -15.46279813	     -3.20336371	     11.97032364	     -3.57947862	     -7.16466060	     25.00530781	     25.00530781	     21.01768046	    -17.75598499	     10.91875008	    -11.99073482	     10.05623482	      2.03145438	    -11.32359530	     -9.68769677	    -22.37516184	     21.15697237	     47.47453795	      0.00000000	      0.00000000	     29.13377304	    -25.09794311	     -6.74740180	     74.44139586	     47.70003300	      0.00000000	      0.00000000
     22.76164286	     -7.65591281	     -4.63168972	     -8.33084483	      0.92221619	      0.92487416	      0.44776574	     30.68517738	     -0.34803675	     -5.16416879	     37.56983503	     37.56983503	      8.09694167	    -12.11433455	     -3.52673529	     10.96003616	     -3.99453050	     -8.08661029	     23.90072999	     23.90072999	     21.03296256	    -17.61507678	     11.00796914	    -12.01845930	     10.26317846	      2.09440036	    -11.83396938	     -9.36785993	    -22.28783621	     21.51549515	     47.43879060	      0.00000000	      0.00000000	     30.30548149	    -25.63385006	     -6.94210938	     75.94832892	     47.74742585	      0.00000000	      0.00000000
     22.78157143	     -7.72618838	     -4.50832863	     -9.36551225	      0.92235745	      0.92474034	      0.45164317	     30.06039768	      0.05606696	     -5.67508081	     31.96250254	     31.96250254	      7.70658067	     -7.34679125	     -4.82490394	      9.86746979	     -4.05136384	     -9.03129917	     22.84141070	     22.84141070	     20.94929586	    -17.57518555	     10.45985689	    -12.13403470	     10.13003826	      1.92756429	    -12.63635986	     -9.02731854	    -21.89439530	     23.70351445	     47.27220259	      0.00000000	      0.00000000	     30.87248093	    -26.47024256	     -7.42585545	     78.98916108	     47.84992711	      0.00000000	      0.00000000
